# xmcd
#
# Track frame offsets:
#	150
#	19392
#	32375
#	47077
#	59175
#	69700
#	79827
#	91420
#	101407
#	112662
#	126982
#	137910
#	151270
#	163215
#	174827
#
# Disc length: 2571 seconds
#
# Revision: 12
# Processed by: cddbd v1.5.2PL0 Copyright (c) Steve Scherf et al.
# Submitted via: audiograbber 1.83.01
#
DISCID=c70a090f
DTITLE=Various Artist - CLASSIC COUNTRY 1965 BIS 1969 [DISC 02]
DYEAR=1999
DGENRE=COUNTRY
TTITLE0=BOBBIE GENTRY - ODE TO BILLIE JOE
TTITLE1=KENNY ROGERS - RUBY DON'T TAKE YOUR LOVE TO TOWN
TTITLE2=JEANNIE C. RILEY - HARPER VALLEY P.T.A.
TTITLE3=EDDY ARNOLD - MAKE THE WORLD GO AWAY
TTITLE4=STATLER BROTHERS - FLOWERS ON THE WALL
TTITLE5=JIM REEVES - IS IT REALLY OVER
TTITLE6=SANDY POSEY - SINGLE GIRL
TTITLE7=DON GIBSON - FUNNY FAMILIAR FORGOTTEN FEELINGS
TTITLE8=NED MILLER - DO WHAT YOU DO DO WELL
TTITLE9=DAVID HOUSTON - ALMOST PERSUADED
TTITLE10=JOHNNY CASH - DADDY SANG BASS
TTITLE11=TAMMY WYNETTE - D.I.V.O.R.C.E.
TTITLE12=ROGER MILLER - LITTLE GREEN APPLES
TTITLE13=BOBBIE GENTRY - ALL I HAVE TO DO IS DREAM
TTITLE14=BOBBY GOLDSBORO - HONEY
EXTD=YEAR: 1999
EXTT0=
EXTT1=
EXTT2=
EXTT3=
EXTT4=
EXTT5=
EXTT6=
EXTT7=
EXTT8=
EXTT9=
EXTT10=
EXTT11=
EXTT12=
EXTT13=
EXTT14=
PLAYORDER=
